<svg width="50" height="51" viewBox="0 0 50 51" fill="none" xmlns="http://www.w3.org/2000/svg">
<g filter="url(#filter0_ddd)">
<circle cx="25" cy="24" r="20" fill="#2196F3"/>
</g>
<path d="M22.832 22.4141H24.4609C25.4844 22.3984 26.2891 22.1289 26.875 21.6055C27.4609 21.082 27.7539 20.375 27.7539 19.4844C27.7539 17.4844 26.7578 16.4844 24.7656 16.4844C23.8281 16.4844 23.0781 16.7539 22.5156 17.293C21.9609 17.8242 21.6836 18.5312 21.6836 19.4141H19.5156C19.5156 18.0625 20.0078 16.9414 20.9922 16.0508C21.9844 15.1523 23.2422 14.7031 24.7656 14.7031C26.375 14.7031 27.6367 15.1289 28.5508 15.9805C29.4648 16.832 29.9219 18.0156 29.9219 19.5312C29.9219 20.2734 29.6797 20.9922 29.1953 21.6875C28.7188 22.3828 28.0664 22.9023 27.2383 23.2461C28.1758 23.543 28.8984 24.0352 29.4062 24.7227C29.9219 25.4102 30.1797 26.25 30.1797 27.2422C30.1797 28.7734 29.6797 29.9883 28.6797 30.8867C27.6797 31.7852 26.3789 32.2344 24.7773 32.2344C23.1758 32.2344 21.8711 31.8008 20.8633 30.9336C19.8633 30.0664 19.3633 28.9219 19.3633 27.5H21.543C21.543 28.3984 21.8359 29.1172 22.4219 29.6562C23.0078 30.1953 23.793 30.4648 24.7773 30.4648C25.8242 30.4648 26.625 30.1914 27.1797 29.6445C27.7344 29.0977 28.0117 28.3125 28.0117 27.2891C28.0117 26.2969 27.707 25.5352 27.0977 25.0039C26.4883 24.4727 25.6094 24.1992 24.4609 24.1836H22.832V22.4141Z" fill="white"/>
<defs>
<filter id="filter0_ddd" x="0" y="0" width="50" height="51" filterUnits="userSpaceOnUse" color-interpolation-filters="sRGB">
<feFlood flood-opacity="0" result="BackgroundImageFix"/>
<feColorMatrix in="SourceAlpha" type="matrix" values="0 0 0 0 0 0 0 0 0 0 0 0 0 0 0 0 0 0 127 0"/>
<feOffset dy="2"/>
<feGaussianBlur stdDeviation="2"/>
<feColorMatrix type="matrix" values="0 0 0 0 0 0 0 0 0 0 0 0 0 0 0 0 0 0 0.14 0"/>
<feBlend mode="normal" in2="BackgroundImageFix" result="effect1_dropShadow"/>
<feColorMatrix in="SourceAlpha" type="matrix" values="0 0 0 0 0 0 0 0 0 0 0 0 0 0 0 0 0 0 127 0"/>
<feOffset dy="3"/>
<feGaussianBlur stdDeviation="2"/>
<feColorMatrix type="matrix" values="0 0 0 0 0 0 0 0 0 0 0 0 0 0 0 0 0 0 0.12 0"/>
<feBlend mode="normal" in2="effect1_dropShadow" result="effect2_dropShadow"/>
<feColorMatrix in="SourceAlpha" type="matrix" values="0 0 0 0 0 0 0 0 0 0 0 0 0 0 0 0 0 0 127 0"/>
<feOffset dy="1"/>
<feGaussianBlur stdDeviation="2.5"/>
<feColorMatrix type="matrix" values="0 0 0 0 0 0 0 0 0 0 0 0 0 0 0 0 0 0 0.2 0"/>
<feBlend mode="normal" in2="effect2_dropShadow" result="effect3_dropShadow"/>
<feBlend mode="normal" in="SourceGraphic" in2="effect3_dropShadow" result="shape"/>
</filter>
</defs>
</svg>
